<svg width="25" height="25" viewBox="0 0 25 25" fill="none" xmlns="http://www.w3.org/2000/svg">
<path d="M6.20455 12.3636C6.20455 11.1667 6.49621 10.0758 7.07955 9.09091C7.67045 8.09848 8.45833 7.31061 9.44318 6.72727C10.4356 6.13636 11.5303 5.84091 12.7273 5.84091C13.7803 5.84091 14.75 6.06818 15.6364 6.52273C16.5227 6.97727 17.2538 7.59848 17.8295 8.38636C18.4129 9.17424 18.7689 10.0644 18.8977 11.0568H15.7273C15.5985 10.4129 15.25 9.89015 14.6818 9.48864C14.1136 9.07955 13.4621 8.875 12.7273 8.875C12.0909 8.875 11.5076 9.03409 10.9773 9.35227C10.4545 9.66288 10.0341 10.0833 9.71591 10.6136C9.4053 11.1364 9.25 11.7159 9.25 12.3523C9.25 12.9962 9.4053 13.5833 9.71591 14.1136C10.0341 14.6364 10.4545 15.0568 10.9773 15.375C11.5076 15.6932 12.0909 15.8523 12.7273 15.8523C13.4621 15.8523 14.0909 15.6515 14.6136 15.25C15.1364 14.8409 15.4621 14.3144 15.5909 13.6705H18.7614C18.6326 14.6629 18.2879 15.553 17.7273 16.3409C17.1742 17.1288 16.4659 17.75 15.6023 18.2045C14.7386 18.6591 13.7803 18.8864 12.7273 18.8864C11.5303 18.8864 10.4356 18.5947 9.44318 18.0114C8.45833 17.4205 7.67045 16.6326 7.07955 15.6477C6.49621 14.6553 6.20455 13.5606 6.20455 12.3636ZM12.6364 24.3636C10.9848 24.3636 9.43182 24.053 7.97727 23.4318C6.5303 22.8106 5.25379 21.9508 4.14773 20.8523C3.04924 19.7462 2.18561 18.4697 1.55682 17.0227C0.935606 15.5758 0.628788 14.0227 0.636364 12.3636C0.643939 10.7045 0.958333 9.15151 1.57955 7.70454C2.20833 6.25757 3.07197 4.98485 4.17045 3.88636C5.26894 2.7803 6.54167 1.91667 7.98864 1.29545C9.43561 0.674242 10.9848 0.363636 12.6364 0.363636C14.2955 0.363636 15.8485 0.674242 17.2955 1.29545C18.75 1.91667 20.0227 2.7803 21.1136 3.88636C22.2121 4.98485 23.072 6.25757 23.6932 7.70454C24.3144 9.15151 24.6288 10.7045 24.6364 12.3636C24.6439 14.0227 24.3371 15.5758 23.7159 17.0227C23.0947 18.4697 22.2348 19.7462 21.1364 20.8523C20.0379 21.9508 18.7614 22.8106 17.3068 23.4318C15.8523 24.053 14.2955 24.3636 12.6364 24.3636ZM12.6364 20.9659C13.8258 20.9659 14.9432 20.7424 15.9886 20.2955C17.0341 19.8485 17.947 19.2348 18.7273 18.4545C19.5152 17.6667 20.1288 16.7538 20.5682 15.7159C21.0152 14.6705 21.2386 13.5568 21.2386 12.375C21.2311 11.1856 21.0038 10.0682 20.5568 9.02273C20.1174 7.97727 19.5038 7.06439 18.7159 6.28409C17.928 5.49621 17.0152 4.87879 15.9773 4.43182C14.9394 3.98485 13.8258 3.76136 12.6364 3.76136C11.4545 3.76136 10.3447 3.98485 9.30682 4.43182C8.26894 4.87879 7.35606 5.49621 6.56818 6.28409C5.7803 7.07197 5.16288 7.98864 4.71591 9.03409C4.26894 10.072 4.04167 11.1856 4.03409 12.375C4.03409 13.5492 4.25379 14.6591 4.69318 15.7045C5.14015 16.7424 5.75758 17.6553 6.54545 18.4432C7.33333 19.2311 8.24621 19.8485 9.28409 20.2955C10.3295 20.7424 11.447 20.9659 12.6364 20.9659Z" fill="white"/>
</svg>
